<?xml version="1.0" encoding="utf-8"?>
<!-- Generator: Adobe Illustrator 24.3.0, SVG Export Plug-In . SVG Version: 6.00 Build 0)  -->
<svg version="1.1" id="Layer_1" xmlns="http://www.w3.org/2000/svg" xmlns:xlink="http://www.w3.org/1999/xlink" x="0px" y="0px"
	 viewBox="0 0 350 350" enable-background="new 0 0 350 350" xml:space="preserve">
<g>
	<path fill="#88E5D9" d="M174.996,225.953c-28.096,0-50.951-22.857-50.951-50.952c0-28.096,22.856-50.952,50.951-50.952
		s50.953,22.857,50.953,50.952C225.949,203.096,203.092,225.953,174.996,225.953z"/>
	<path fill="#041C3F" d="M174.996,110.506c-35.562,0-64.494,28.932-64.494,64.495c0,35.561,28.932,64.495,64.494,64.495
		s64.496-28.934,64.496-64.495C239.492,139.438,210.559,110.506,174.996,110.506z M174.996,225.953
		c-28.096,0-50.951-22.857-50.951-50.952c0-28.096,22.856-50.952,50.951-50.952s50.953,22.857,50.953,50.952
		C225.949,203.096,203.092,225.953,174.996,225.953z"/>
	<path fill="#88E5D9" d="M174.996,67.823L188.4,91.039c-4.408-0.688-8.883-1.035-13.404-1.035c-4.52,0-8.996,0.347-13.404,1.035
		L174.996,67.823z"/>
	<path fill="#69CCBE" d="M182.34,90.315c2.033,0.172,4.055,0.41,6.061,0.724l-13.404-23.216l-2.82,4.887L182.34,90.315z"/>
	<path fill="#69CCBE" d="M189.564,126.174c13.836,9.12,22.986,24.795,22.986,42.57c0,28.096-22.855,50.951-50.951,50.951
		c-5.061,0-9.951-0.744-14.568-2.125c8.033,5.295,17.645,8.383,27.965,8.383c28.096,0,50.953-22.857,50.953-50.952
		C225.949,151.966,210.584,132.457,189.564,126.174z"/>
	<path fill="#041C3F" d="M208.035,97.965l-27.174-47.069c-1.211-2.095-3.445-3.386-5.865-3.386c-2.418,0-4.654,1.291-5.863,3.386
		l-27.324,47.327c-1.426,2.47-1.152,5.566,0.684,7.747c1.312,1.559,3.221,2.41,5.182,2.41c0.781,0,1.57-0.136,2.334-0.415
		c7.977-2.932,16.385-4.418,24.988-4.418c8.605,0,17.014,1.486,24.99,4.418c0.836,0.307,1.699,0.439,2.557,0.412
		c3.641-0.114,6.557-3.101,6.557-6.768C209.1,100.268,208.709,99.018,208.035,97.965z M174.996,90.004
		c-4.52,0-8.996,0.347-13.404,1.035l13.404-23.216L188.4,91.039C183.992,90.351,179.518,90.004,174.996,90.004z"/>
	<path fill="#88E5D9" d="M82.18,121.415h26.809c-2.801,3.473-5.338,7.175-7.6,11.09c-2.26,3.915-4.197,7.964-5.805,12.126
		L82.18,121.415z"/>
	<path fill="#69CCBE" d="M105.33,126.301c1.166-1.674,2.383-3.305,3.658-4.886H82.18l2.822,4.886H105.33z"/>
	<path fill="#041C3F" d="M124.805,107.873H70.451c-2.418,0-4.652,1.29-5.863,3.385c-1.209,2.096-1.209,4.677,0,6.771l27.324,47.327
		c1.426,2.47,4.244,3.78,7.051,3.281c2.006-0.357,3.699-1.585,4.68-3.282c0.391-0.677,0.668-1.428,0.807-2.229
		c1.449-8.373,4.365-16.398,8.668-23.85c4.303-7.452,9.793-13.991,16.32-19.433c0.684-0.569,1.232-1.252,1.637-2.009
		c1.721-3.21,0.592-7.228-2.584-9.062C127.328,108.104,126.051,107.815,124.805,107.873z M101.389,132.505
		c-2.26,3.915-4.197,7.964-5.805,12.126L82.18,121.415h26.809C106.188,124.888,103.65,128.59,101.389,132.505z"/>
	<path fill="#88E5D9" d="M82.184,228.592l13.404-23.217c1.607,4.162,3.545,8.211,5.805,12.127c2.26,3.914,4.799,7.617,7.6,11.09
		H82.184z"/>
	<path fill="#69CCBE" d="M97.99,210.986c-0.867-1.846-1.672-3.717-2.402-5.611l-13.404,23.217h5.643L97.99,210.986z"/>
	<path fill="#041C3F" d="M91.768,184.906l-27.176,47.072c-1.209,2.094-1.209,4.674,0,6.77c1.209,2.096,3.445,3.387,5.863,3.387
		h54.65c2.85,0,5.395-1.785,6.365-4.467c0.695-1.916,0.479-3.994-0.502-5.691c-0.391-0.678-0.904-1.293-1.527-1.814
		c-6.527-5.441-12.018-11.979-16.32-19.432c-4.303-7.453-7.219-15.477-8.668-23.85c-0.152-0.879-0.471-1.693-0.924-2.422
		c-1.918-3.096-5.963-4.127-9.139-2.293C93.229,182.836,92.342,183.799,91.768,184.906z M101.393,217.502
		c2.26,3.914,4.799,7.617,7.6,11.09H82.184l13.404-23.217C97.195,209.537,99.133,213.586,101.393,217.502z"/>
	<path fill="#88E5D9" d="M175.004,282.178L161.6,258.961c4.408,0.689,8.883,1.035,13.404,1.035c4.52,0,8.996-0.346,13.402-1.035
		L175.004,282.178z"/>
	<path fill="#69CCBE" d="M167.66,259.685c-2.033-0.172-4.055-0.41-6.061-0.725l13.404,23.217l2.82-4.887L167.66,259.685z"/>
	<path fill="#041C3F" d="M141.963,252.035l27.176,47.07c1.211,2.096,3.445,3.385,5.865,3.385c2.418,0,4.654-1.289,5.863-3.385
		l27.324-47.328c1.426-2.469,1.152-5.566-0.684-7.746c-1.312-1.559-3.221-2.412-5.182-2.412c-0.781,0-1.57,0.137-2.334,0.418
		c-7.977,2.93-16.383,4.418-24.988,4.418s-17.014-1.488-24.99-4.418c-0.836-0.309-1.699-0.441-2.557-0.412
		c-3.641,0.113-6.557,3.1-6.557,6.768C140.9,249.734,141.291,250.982,141.963,252.035z M175.004,259.996
		c4.52,0,8.996-0.346,13.402-1.035l-13.402,23.217L161.6,258.961C166.008,259.65,170.482,259.996,175.004,259.996z"/>
	<path fill="#88E5D9" d="M267.82,228.586h-26.809c2.801-3.475,5.338-7.176,7.6-11.092c2.26-3.914,4.197-7.963,5.805-12.125
		L267.82,228.586z"/>
	<path fill="#69CCBE" d="M244.67,223.699c-1.166,1.674-2.383,3.307-3.658,4.887h26.809l-2.822-4.887H244.67z"/>
	<path fill="#041C3F" d="M225.197,242.129h54.35c2.42,0,4.654-1.291,5.865-3.387c1.209-2.096,1.209-4.676,0-6.771l-27.326-47.328
		c-1.424-2.469-4.242-3.779-7.049-3.279c-2.006,0.357-3.699,1.584-4.68,3.281c-0.391,0.676-0.668,1.43-0.807,2.23
		c-1.449,8.371-4.365,16.396-8.668,23.848c-4.303,7.453-9.795,13.992-16.32,19.434c-0.684,0.57-1.23,1.254-1.637,2.01
		c-1.721,3.209-0.592,7.227,2.584,9.061C222.672,241.896,223.949,242.186,225.197,242.129z M248.611,217.494
		c2.26-3.914,4.197-7.963,5.805-12.125l13.404,23.217h-26.809C243.812,225.111,246.35,221.41,248.611,217.494z"/>
	<path fill="#88E5D9" d="M267.816,121.409l-13.404,23.216c-1.607-4.162-3.545-8.21-5.805-12.125
		c-2.26-3.915-4.799-7.618-7.598-11.091H267.816z"/>
	<path fill="#69CCBE" d="M252.01,139.015c0.867,1.846,1.67,3.716,2.402,5.61l13.404-23.216h-5.643L252.01,139.015z"/>
	<path fill="#041C3F" d="M258.232,165.093l27.176-47.069c1.211-2.095,1.209-4.676,0-6.771c-1.209-2.095-3.445-3.385-5.863-3.385
		h-54.65c-2.85,0-5.395,1.784-6.365,4.465c-0.693,1.916-0.479,3.996,0.502,5.693c0.391,0.677,0.904,1.293,1.527,1.813
		c6.527,5.441,12.018,11.98,16.32,19.433c4.303,7.451,7.219,15.476,8.67,23.85c0.15,0.877,0.469,1.692,0.922,2.421
		c1.918,3.095,5.961,4.128,9.139,2.293C256.77,167.165,257.658,166.202,258.232,165.093z M248.607,132.5
		c-2.26-3.915-4.799-7.618-7.598-11.091h26.807l-13.404,23.216C252.805,140.463,250.867,136.415,248.607,132.5z"/>
</g>
</svg>
