<?xml version="1.0" encoding="utf-8"?>
<!-- Generator: Adobe Illustrator 24.3.0, SVG Export Plug-In . SVG Version: 6.00 Build 0)  -->
<svg version="1.1" id="Layer_1" xmlns="http://www.w3.org/2000/svg" xmlns:xlink="http://www.w3.org/1999/xlink" x="0px" y="0px"
	 viewBox="0 0 350 350" enable-background="new 0 0 350 350" xml:space="preserve">
<g>
	<path fill="#88E5D9" d="M232.489,68.506c4.327,0,7.848,3.521,7.848,7.848c0,4.326-3.52,7.846-7.848,7.846
		c-4.326,0-7.846-3.52-7.846-7.846C224.644,72.028,228.163,68.506,232.489,68.506z"/>
	<path fill="#69CCBE" d="M228.509,80.219c0-4.326,3.52-7.848,7.846-7.848c1.165,0,2.267,0.262,3.262,0.72
		c-1.242-2.701-3.966-4.585-7.128-4.585c-4.326,0-7.846,3.521-7.846,7.848c0,3.162,1.884,5.886,4.585,7.127
		C228.771,82.486,228.509,81.384,228.509,80.219z"/>
	<path fill="#88E5D9" d="M104.369,207.57c-3.062,0-5.553-2.49-5.553-5.553c0-3.061,2.491-5.553,5.553-5.553
		c3.062,0,5.553,2.492,5.553,5.553C109.922,205.08,107.431,207.57,104.369,207.57z"/>
	<path fill="#69CCBE" d="M104.369,196.464c-2.225,0-4.143,1.318-5.028,3.212c0.712-0.333,1.503-0.524,2.34-0.524
		c3.062,0,5.553,2.492,5.553,5.553c0,0.837-0.191,1.628-0.524,2.341c1.894-0.886,3.212-2.803,3.212-5.028
		C109.922,198.957,107.431,196.464,104.369,196.464z"/>
	<path fill="#88E5D9" d="M143.666,64.108l50.532,50.531c0.001,0.002,0.002,0.002,0.003,0.004c0.001,0,0.002,0,0.003,0.002
		l50.531,50.533c-12.842,10.656-28.848,16.456-45.745,16.456c-19.174,0-37.2-7.466-50.758-21.024
		c-13.558-13.557-21.023-31.582-21.023-50.756C127.209,92.956,133.009,76.95,143.666,64.108z"/>
	<g>
		<polygon fill="#69CCBE" points="200.884,121.325 194.204,114.645 194.203,114.644 		"/>
		<polygon fill="#69CCBE" points="214.247,134.689 214.248,134.689 214.247,134.688 		"/>
		<path fill="#69CCBE" d="M147.255,129.9c0-16.898,5.8-32.904,16.457-45.746l30.487,30.487c0-0.001-0.001-0.001-0.001-0.002
			l-50.532-50.531c-10.657,12.842-16.457,28.848-16.457,45.746c0,19.174,7.466,37.199,21.023,50.756
			c3.405,3.405,7.092,6.424,11.007,9.039C151.443,157.972,147.255,144.258,147.255,129.9z"/>
	</g>
	<path fill="#9788E2" d="M138.657,170.186c0.049,0.049,0.099,0.096,0.148,0.145l-19.637,19.636
		c-1.554-1.904-3.466-3.504-5.635-4.695l20.313-20.312C135.371,166.756,136.973,168.502,138.657,170.186z"/>
	<path fill="#9788E2" d="M112.079,219.482c2.468-1.096,4.664-2.693,6.451-4.67l74.102,74.104h-48.306L112.079,219.482z"/>
	<path fill="#8478D6" d="M118.53,214.812c-1.787,1.976-3.983,3.574-6.451,4.67l5.647,12.159L175,288.916h17.633L118.53,214.812z"/>
	<path fill="#041C3F" d="M264.261,288.916h-52.477l-86.206-86.207l23.58-23.578c14.421,10.418,31.692,16.047,49.832,16.047
		c22.79,0,44.216-8.875,60.331-24.989c1.27-1.271,1.982-2.994,1.982-4.789c0-1.795-0.713-3.518-1.982-4.787l-50.756-50.758
		l14.371-14.371c2.878,1.441,6.121,2.26,9.553,2.26c11.795,0,21.389-9.596,21.389-21.389c0-11.795-9.594-21.389-21.389-21.389
		c-11.793,0-21.389,9.594-21.389,21.389c0,3.432,0.817,6.674,2.26,9.553l-14.371,14.371l-50.757-50.756
		c-1.27-1.27-2.992-1.982-4.788-1.982c-1.796,0-3.518,0.713-4.787,1.982c-16.115,16.115-24.99,37.541-24.99,60.332
		c0,15.74,4.235,30.83,12.164,43.969l-32.974,32.974c-4.604,3.488-7.583,9.014-7.583,15.221c0,8.02,4.972,14.896,11.992,17.721
		l32.129,69.178H85.739c-3.74,0-6.771,3.031-6.771,6.771c0,3.74,3.031,6.772,6.771,6.772h54.225c0.016,0,0.03,0.002,0.046,0.002
		c0.021,0,0.042-0.002,0.062-0.002h124.188c3.74,0,6.771-3.031,6.771-6.772C271.032,291.947,268.001,288.916,264.261,288.916z
		 M232.489,68.506c4.327,0,7.848,3.521,7.848,7.848c0,4.326-3.52,7.846-7.848,7.846c-4.326,0-7.846-3.52-7.846-7.846
		C224.644,72.028,228.163,68.506,232.489,68.506z M143.666,64.108l50.532,50.531c0.001,0.002,0.002,0.002,0.003,0.004
		c0.001,0,0.002,0,0.003,0.002l50.531,50.533c-12.842,10.656-28.848,16.456-45.745,16.456c-19.174,0-37.2-7.466-50.758-21.024
		c-13.558-13.557-21.023-31.582-21.023-50.756C127.209,92.956,133.009,76.95,143.666,64.108z M133.847,164.959
		c1.524,1.797,3.126,3.543,4.811,5.227c0.049,0.049,0.099,0.096,0.148,0.145l-19.637,19.636c-1.554-1.904-3.466-3.504-5.635-4.695
		L133.847,164.959z M104.369,207.57c-3.062,0-5.553-2.49-5.553-5.553c0-3.061,2.491-5.553,5.553-5.553
		c3.062,0,5.553,2.492,5.553,5.553C109.922,205.08,107.431,207.57,104.369,207.57z M144.327,288.916l-32.248-69.434
		c2.468-1.096,4.664-2.693,6.451-4.67l74.102,74.104H144.327z"/>
</g>
</svg>
