<?xml version="1.0" encoding="utf-8"?>
<!-- Generator: Adobe Illustrator 24.3.0, SVG Export Plug-In . SVG Version: 6.00 Build 0)  -->
<svg version="1.1" id="Layer_1" xmlns="http://www.w3.org/2000/svg" xmlns:xlink="http://www.w3.org/1999/xlink" x="0px" y="0px"
	 viewBox="0 0 350 350" enable-background="new 0 0 350 350" xml:space="preserve">
<g>
	<polygon fill="#88E5D9" points="98.433,64.756 111.64,83.478 83.476,111.641 64.757,98.434 	"/>
	<polygon fill="#FF54A4" points="125.927,141.59 94.707,119.564 119.562,94.707 141.59,125.927 	"/>
	
		<rect x="148.101" y="159.434" transform="matrix(0.7071 -0.7071 0.7071 0.7071 -72.4873 175.0003)" fill="#FFFFFF" width="53.797" height="31.132"/>
	<path fill="#9788E2" d="M216.111,111.876c0.027-0.027,0.057-0.056,0.084-0.083c6.069-6.069,15.945-6.069,22.014,0
		c2.939,2.939,4.559,6.849,4.559,11.006c0,4.157-1.619,8.066-4.559,11.006l-23.605,23.605l-22.014-22.013L216.111,111.876z"/>
	<path fill="#9788E2" d="M138.652,233.36c-0.01,0.01-0.02,0.02-0.031,0.031c-6.072,6.038-15.924,6.027-21.981-0.031
		c-6.07-6.068-6.068-15.943,0-22.013c0.025-0.027,0.053-0.054,0.079-0.081l18.677-18.677l22.014,22.014L138.652,233.36z"/>
	<polygon fill="#88E5D9" points="224.072,208.41 255.295,230.438 230.437,255.294 208.41,224.073 	"/>
	<polygon fill="#FF54A4" points="251.568,285.244 238.36,266.522 266.523,238.36 285.244,251.567 	"/>
	<path fill="#041C3F" d="M302.463,250.093c-0.17-1.99-1.209-3.804-2.842-4.955l-72.4-51.08c-2.691-1.9-6.361-1.585-8.691,0.744
		l-7.075,7.076l-11.084-11.083l47.415-47.415c0-0.001,0.002-0.001,0.002-0.001c5.496-5.497,8.523-12.805,8.523-20.58
		s-3.027-15.084-8.525-20.582c-11.316-11.316-29.711-11.349-41.068-0.096c-0.033,0.03-0.064,0.062-0.098,0.095l-47.414,47.414
		l-11.082-11.082l7.074-7.076c2.33-2.33,2.645-5.999,0.746-8.691l-51.08-72.4c-1.151-1.632-2.965-2.672-4.955-2.843
		c-1.988-0.172-3.953,0.546-5.365,1.959L49.496,94.543c-1.413,1.413-2.129,3.377-1.959,5.366c0.17,1.99,1.211,3.803,2.844,4.955
		l72.398,51.079c1.179,0.831,2.543,1.238,3.902,1.238c1.746,0,3.479-0.673,4.789-1.982l7.076-7.075l11.082,11.082l-19.015,19.014
		c-0.001,0.002-0.003,0.004-0.006,0.006c-0.001,0.002-0.003,0.004-0.005,0.005l-23.539,23.54c-0.031,0.03-0.061,0.061-0.091,0.092
		c-11.258,11.357-11.228,29.756,0.091,41.074c5.675,5.675,13.127,8.513,20.582,8.512c7.453-0.001,14.908-2.838,20.582-8.512
		c0.014-0.014,0.025-0.026,0.039-0.04l42.526-42.526l11.084,11.084l-7.075,7.075c-2.33,2.33-2.645,5.998-0.744,8.69l51.079,72.4
		c1.151,1.632,2.964,2.672,4.954,2.843c0.193,0.017,0.387,0.024,0.578,0.024c1.789,0,3.514-0.707,4.789-1.982l45.047-45.047
		C301.918,254.045,302.634,252.082,302.463,250.093z M64.757,98.434l33.677-33.678l13.207,18.722l-28.164,28.163L64.757,98.434z
		 M125.927,141.59l-31.221-22.026l24.856-24.857l22.027,31.221L125.927,141.59z M216.111,111.876
		c0.027-0.027,0.057-0.056,0.084-0.083c6.069-6.069,15.945-6.069,22.014,0c2.939,2.939,4.559,6.849,4.559,11.006
		c0,4.157-1.619,8.066-4.559,11.006l-23.605,23.605l-22.014-22.013L216.111,111.876z M138.652,233.36
		c-0.01,0.01-0.02,0.02-0.031,0.031c-6.072,6.038-15.924,6.027-21.981-0.031c-6.07-6.068-6.068-15.943,0-22.013
		c0.025-0.027,0.053-0.054,0.079-0.081l18.677-18.677l22.014,22.014L138.652,233.36z M166.986,205.026l-22.014-22.014l38.041-38.04
		l22.014,22.014L166.986,205.026z M208.41,224.073l15.662-15.663l31.223,22.027l-24.857,24.856L208.41,224.073z M251.568,285.244
		l-13.208-18.722l28.163-28.162l18.721,13.207L251.568,285.244z"/>
	
		<rect x="155.214" y="176.607" transform="matrix(0.7071 -0.7071 0.7071 0.7071 -75.4339 182.1114)" fill="#EDEDED" width="53.797" height="11.012"/>
	<path fill="#8478D6" d="M238.209,111.793c-1.368-1.369-2.93-2.425-4.598-3.176c0.895,1.984,1.37,4.152,1.37,6.395
		c0,4.158-1.618,8.066-4.559,11.006l-23.606,23.606l7.787,7.786l23.605-23.605c2.939-2.939,4.559-6.849,4.559-11.006
		C242.767,118.641,241.148,114.732,238.209,111.793z"/>
	<path fill="#8478D6" d="M135.396,192.59L135.396,192.59l14.227,14.227l-18.758,18.757c-0.01,0.01-0.02,0.021-0.031,0.031
		c-4.698,4.672-11.658,5.719-17.373,3.148c0.751,1.672,1.809,3.237,3.18,4.607c6.057,6.059,15.908,6.069,21.981,0.031
		c0.011-0.011,0.021-0.021,0.031-0.031l18.758-18.757L135.396,192.59z"/>
	<polygon fill="#69CCBE" points="92.291,70.9 105.499,89.619 111.64,83.478 98.433,64.756 64.757,98.434 64.757,98.434 	"/>
	<polygon fill="#EF4198" points="113.422,100.848 135.448,132.07 141.59,125.927 119.562,94.707 94.707,119.564 94.707,119.564 	"/>
</g>
</svg>
