<?xml version="1.0" encoding="utf-8"?>
<!-- Generator: Adobe Illustrator 24.3.0, SVG Export Plug-In . SVG Version: 6.00 Build 0)  -->
<svg version="1.1" id="Layer_1" xmlns="http://www.w3.org/2000/svg" xmlns:xlink="http://www.w3.org/1999/xlink" x="0px" y="0px"
	 viewBox="0 0 350 350" enable-background="new 0 0 350 350" xml:space="preserve">
<g>
	<path fill="#9788E2" d="M175.001,284.879c-40.398,0-60.566-11.763-66.621-39.957c16.357,6.66,37.844,9.797,66.621,9.797
		c28.778,0,50.265-3.137,66.622-9.797C235.567,273.115,215.389,284.879,175.001,284.879z"/>
	<g>
		<path fill="#8478D6" d="M127.673,254.719c8.513,0,16.372-0.282,23.664-0.841c-17.36-1.331-31.438-4.266-42.957-8.956
			c0.724,3.369,1.655,6.498,2.792,9.405C116.394,254.585,121.878,254.719,127.673,254.719z"/>
		<path fill="#8478D6" d="M191.502,254.328c-6.3,16.102-19.097,25.262-40.167,28.814c6.963,1.174,14.831,1.736,23.666,1.736
			c40.388,0,60.565-11.764,66.622-39.957C228.561,250.241,212.21,253.306,191.502,254.328z"/>
	</g>
	<path fill="#9788E2" d="M247.745,226.521c-0.881,0.326-1.678,0.833-2.348,1.477c-0.686,0.408-1.381,0.811-2.096,1.197
		c-15.129,8.175-36.834,11.981-68.3,11.981c-31.469,0-53.172-3.807-68.303-11.981c-17.543-9.479-26.07-25.42-26.07-48.734
		c0-52.037,42.336-94.373,94.373-94.373c52.036,0,94.372,42.336,94.372,94.373C269.374,201.711,262.284,216.833,247.745,226.521z"/>
	<path fill="#8478D6" d="M175.001,86.088c-8.472,0-16.684,1.129-24.5,3.232c40.196,10.816,69.872,47.575,69.872,91.141
		c0,21.25-7.09,36.372-21.629,46.061c-0.881,0.326-1.678,0.833-2.348,1.477c-0.686,0.408-1.381,0.811-2.096,1.197
		c-10.836,5.855-25.048,9.469-43.801,11.048c7.431,0.626,15.571,0.934,24.501,0.934c31.466,0,53.171-3.807,68.3-11.981
		c0.715-0.387,1.41-0.789,2.096-1.197c0.67-0.644,1.467-1.15,2.348-1.477c14.539-9.688,21.629-24.811,21.629-46.061
		C269.374,128.424,227.038,86.088,175.001,86.088z"/>
	<path fill="#041C3F" d="M295.719,145.789h-18.473c-5.244-15.508-14.023-29.721-25.938-41.636
		c-12.984-12.984-28.697-22.245-45.842-27.263V57.998c0-3.739-3.031-6.771-6.771-6.771h-47.392c-3.738,0-6.771,3.032-6.771,6.771
		V76.89c-17.145,5.018-32.855,14.279-45.84,27.263c-11.914,11.915-20.695,26.128-25.938,41.636H54.281
		c-3.74,0-6.771,3.032-6.771,6.771v47.393c0,3.739,3.031,6.771,6.771,6.771h16.707c4.174,12.554,11.688,22.647,22.483,30.194
		c1.139,11.12,3.871,20.81,8.148,28.835c4.486,8.422,10.795,15.279,18.746,20.385c13.051,8.379,30.412,12.281,54.637,12.281
		c24.265,0,41.646-3.916,54.704-12.324c7.955-5.124,14.262-12.008,18.74-20.46c4.24-7.999,6.949-17.649,8.084-28.717
		c10.795-7.547,18.311-17.641,22.482-30.194h16.707c3.74,0,6.772-3.031,6.772-6.771V152.56
		C302.491,148.821,299.459,145.789,295.719,145.789z M67.904,193.182h-6.851v-33.851h8.09c-1.359,6.886-2.057,13.953-2.057,21.129
		C67.085,184.896,67.359,189.138,67.904,193.182z M158.076,64.769h33.851v9.095c-5.549-0.869-11.203-1.319-16.925-1.319
		c-5.725,0-11.377,0.45-16.926,1.319V64.769z M175.001,284.879c-40.398,0-60.566-11.763-66.621-39.957
		c16.357,6.66,37.844,9.797,66.621,9.797c28.778,0,50.265-3.137,66.622-9.797C235.567,273.115,215.389,284.879,175.001,284.879z
		 M247.745,226.521c-0.881,0.326-1.678,0.833-2.348,1.477c-0.686,0.408-1.381,0.811-2.096,1.197
		c-15.129,8.175-36.834,11.981-68.3,11.981c-31.469,0-53.172-3.807-68.303-11.981c-17.543-9.479-26.07-25.42-26.07-48.734
		c0-52.037,42.336-94.373,94.373-94.373c52.036,0,94.372,42.336,94.372,94.373C269.374,201.711,262.284,216.833,247.745,226.521z
		 M288.948,193.182h-6.852c0.547-4.044,0.818-8.286,0.818-12.722c0-7.176-0.695-14.243-2.055-21.129h8.088V193.182z"/>
	<path fill="#88E5D9" d="M235.618,175.275c-0.494,0.671-1.809,2.455-6.574,4.454c-10.268,4.31-28.451,6.494-54.042,6.494
		c-25.592,0-43.775-2.185-54.045-6.493c-4.764-2-6.078-3.784-6.572-4.455c-1.639-2.223-2.504-5.827-2.504-10.423
		c0-12.339,6.35-24.064,17.877-33.018c12.033-9.347,28.102-14.493,45.244-14.493c17.142,0,33.208,5.146,45.243,14.493
		c11.527,8.953,17.875,20.679,17.875,33.018C238.12,169.448,237.254,173.053,235.618,175.275z"/>
	<path fill="#69CCBE" d="M220.245,131.835c-12.035-9.347-28.102-14.493-45.243-14.493c-17.143,0-33.211,5.146-45.244,14.493
		c-5.399,4.193-9.646,9-12.652,14.188c11.31-7.1,25.339-10.963,40.179-10.963c17.142,0,33.208,5.146,45.243,14.493
		c11.484,8.92,17.823,20.591,17.872,32.879c3.316-0.782,6.211-1.681,8.645-2.702c4.766-1.999,6.08-3.783,6.574-4.454
		c1.637-2.223,2.502-5.827,2.502-10.423C238.12,152.513,231.772,140.788,220.245,131.835z"/>
	<path fill="#041C3F" d="M228.551,121.139c-14.398-11.183-33.416-17.341-53.55-17.341c-20.137,0-39.154,6.158-53.551,17.341
		c-14.904,11.575-23.111,27.1-23.111,43.713c0,7.614,1.729,13.823,5.141,18.454c1.729,2.346,4.877,5.822,12.238,8.911
		c12.104,5.079,31.496,7.548,59.283,7.548c27.786,0,47.179-2.469,59.282-7.549c7.359-3.088,10.508-6.563,12.238-8.91
		c3.41-4.631,5.141-10.84,5.141-18.454C251.663,148.239,243.454,132.715,228.551,121.139z M235.618,175.275
		c-0.494,0.671-1.809,2.455-6.574,4.454c-10.268,4.31-28.451,6.494-54.042,6.494c-25.592,0-43.775-2.185-54.045-6.493
		c-4.764-2-6.078-3.784-6.572-4.455c-1.639-2.223-2.504-5.827-2.504-10.423c0-12.339,6.35-24.064,17.877-33.018
		c12.033-9.347,28.102-14.493,45.244-14.493c17.142,0,33.208,5.146,45.243,14.493c11.527,8.953,17.875,20.679,17.875,33.018
		C238.12,169.448,237.254,173.053,235.618,175.275z"/>
	<path fill="#88E5D9" d="M158.076,64.769h33.851v9.095c-5.549-0.869-11.203-1.319-16.925-1.319c-5.725,0-11.377,0.45-16.926,1.319
		V64.769z"/>
	<path fill="#88E5D9" d="M61.052,193.182v-33.851h8.09c-1.359,6.886-2.057,13.953-2.057,21.129c0,4.436,0.273,8.678,0.818,12.722
		H61.052z"/>
	<path fill="#88E5D9" d="M288.948,193.182h-6.852c0.547-4.044,0.818-8.286,0.818-12.722c0-7.176-0.695-14.243-2.055-21.129h8.088
		V193.182z"/>
</g>
</svg>
