<?xml version="1.0" encoding="utf-8"?>
<!-- Generator: Adobe Illustrator 24.3.0, SVG Export Plug-In . SVG Version: 6.00 Build 0)  -->
<svg version="1.1" id="Layer_1" xmlns="http://www.w3.org/2000/svg" xmlns:xlink="http://www.w3.org/1999/xlink" x="0px" y="0px"
	 viewBox="0 0 350 350" enable-background="new 0 0 350 350" xml:space="preserve">
<g>
	<path fill="#88E5D9" d="M276.646,95.979c-8.549,22.295-24.311,54.441-50.844,80.975c-12.215,12.214-26.438,23.07-42.498,32.471
		c-0.287,0.143-0.566,0.305-0.83,0.488c-8.597,4.984-17.718,9.554-27.337,13.691l-28.74-28.742
		c4.139-9.62,8.708-18.742,13.693-27.341c0.182-0.262,0.34-0.536,0.482-0.82c9.4-16.063,20.258-30.288,32.475-42.505
		c26.532-26.532,58.679-42.294,80.974-50.843c13.547-5.196,25.209-8.436,32.918-10.294C285.082,70.77,281.842,82.432,276.646,95.979
		z"/>
	<path fill="#69CCBE" d="M262.732,70.178c-1.93,7.068-4.676,15.934-8.459,25.801c-8.551,22.295-24.312,54.441-50.846,80.975
		c-12.215,12.214-26.436,23.07-42.497,32.471c-0.287,0.143-0.566,0.305-0.83,0.488c-3.922,2.273-7.959,4.457-12.097,6.557
		l7.134,7.135c9.619-4.138,18.74-8.707,27.337-13.691c0.264-0.184,0.543-0.345,0.83-0.488c16.061-9.4,30.283-20.257,42.498-32.471
		c26.533-26.534,42.295-58.68,50.844-80.975c5.195-13.547,8.435-25.209,10.293-32.92C280.939,64.505,272.547,66.787,262.732,70.178z
		"/>
	<path fill="#FF54A4" d="M222.519,116.948c-2.812,0-5.459,1.096-7.447,3.085c-1.99,1.989-3.086,4.635-3.086,7.447
		c0,2.814,1.096,5.459,3.086,7.447c1.988,1.99,4.633,3.086,7.447,3.087l0,0c2.814,0,5.457-1.097,7.447-3.087
		c4.107-4.106,4.107-10.788,0-14.895C227.976,118.042,225.332,116.948,222.519,116.948z"/>
	<path fill="#041C3F" d="M239.543,110.457c-4.547-4.548-10.594-7.052-17.023-7.052s-12.477,2.504-17.023,7.052
		c-4.547,4.547-7.051,10.593-7.051,17.023c0,6.431,2.504,12.476,7.051,17.024c4.547,4.547,10.592,7.05,17.021,7.051
		c0.002,0,0.002,0,0.002,0c6.43,0,12.477-2.504,17.023-7.051c4.547-4.548,7.051-10.594,7.051-17.024
		C246.594,121.05,244.09,115.004,239.543,110.457z M229.967,134.927c-1.99,1.99-4.633,3.087-7.447,3.087l0,0
		c-2.814-0.001-5.459-1.097-7.447-3.087c-1.99-1.988-3.086-4.633-3.086-7.447c0-2.812,1.096-5.458,3.086-7.447
		c1.988-1.989,4.635-3.085,7.447-3.085s5.457,1.095,7.447,3.085C234.074,124.139,234.074,130.821,229.967,134.927z"/>
	<g>
		<path fill="#041C3F" d="M54.28,256.221c-1.732,0-3.465-0.66-4.787-1.982c-2.645-2.645-2.645-6.933,0-9.576l39.152-39.153
			c2.645-2.645,6.932-2.645,9.576,0c2.644,2.645,2.644,6.933,0,9.577l-39.153,39.152C57.746,255.56,56.014,256.221,54.28,256.221z"
			/>
	</g>
	<g>
		<path fill="#041C3F" d="M63.035,293.737c-1.733,0-3.466-0.661-4.788-1.983c-2.645-2.645-2.645-6.931,0-9.575l40.81-40.81
			c2.645-2.645,6.932-2.645,9.575,0c2.645,2.645,2.645,6.932,0,9.576l-40.809,40.809C66.501,293.076,64.767,293.737,63.035,293.737z
			"/>
	</g>
	<g>
		<path fill="#041C3F" d="M100.551,302.491c-1.733,0-3.466-0.66-4.788-1.982c-2.645-2.645-2.645-6.932,0-9.576l39.153-39.154
			c2.644-2.643,6.932-2.644,9.575,0c2.645,2.645,2.645,6.933,0,9.577l-39.152,39.153
			C104.016,301.83,102.284,302.491,100.551,302.491z"/>
	</g>
	<path fill="#9788E2" d="M88.636,165.706l29.129-29.034l31.34-6.102c-6.797,8.361-13.102,17.385-18.891,27.041L88.636,165.706z"/>
	<path fill="#7C71CC" d="M117.765,145.965l23.027-4.482c2.685-3.751,5.453-7.394,8.312-10.912l-31.34,6.102l-29.129,29.034
		l11.587-2.255L117.765,145.965z"/>
	<path fill="#9788E2" d="M184.293,261.365l8.094-41.578c9.658-5.788,18.68-12.093,27.041-18.891l-6.102,31.34L184.293,261.365z"/>
	<path fill="#041C3F" d="M300.508,49.493c-1.537-1.537-3.721-2.244-5.863-1.898c-0.787,0.128-19.555,3.21-45.129,12.981
		c-15.004,5.731-29.258,12.596-42.369,20.402c-16.1,9.585-30.512,20.633-42.859,32.84l-51.136,9.955
		c-1.32,0.257-2.533,0.902-3.486,1.851l-46.328,46.18c-2.111,2.104-2.598,5.339-1.201,7.971c1.19,2.241,3.51,3.596,5.979,3.596
		c0.43,0,0.863-0.041,1.297-0.124l52.255-10.174c-3.401,6.674-6.584,13.603-9.538,20.784c-1.038,2.528-0.457,5.432,1.475,7.364
		l12.801,12.801l-11.893,11.893c-2.645,2.645-2.645,6.931,0,9.575c1.322,1.322,3.055,1.983,4.789,1.983
		c1.732,0,3.465-0.661,4.787-1.982l11.893-11.894l12.801,12.802c1.296,1.294,3.027,1.983,4.79,1.983c0.866,0,1.741-0.167,2.573-0.51
		c7.182-2.953,14.11-6.136,20.782-9.536l-10.171,52.255c-0.569,2.925,0.84,5.878,3.471,7.274c1.003,0.532,2.092,0.791,3.174,0.791
		c1.758,0,3.495-0.685,4.796-1.992l46.18-46.328c0.949-0.952,1.594-2.166,1.852-3.486l9.953-51.136
		c12.207-12.349,23.256-26.759,32.842-42.86c7.805-13.112,14.67-27.366,20.402-42.369c9.77-25.576,12.853-44.342,12.98-45.129
		C302.75,53.211,302.043,51.03,300.508,49.493z M88.636,165.706l29.129-29.034l31.34-6.102
		c-6.797,8.361-13.102,17.385-18.891,27.041L88.636,165.706z M213.326,232.236l-29.033,29.129l8.094-41.578
		c9.658-5.788,18.68-12.093,27.041-18.891L213.326,232.236z M276.646,95.979c-8.549,22.295-24.311,54.441-50.844,80.975
		c-12.215,12.214-26.438,23.07-42.498,32.471c-0.287,0.143-0.566,0.305-0.83,0.488c-8.597,4.984-17.718,9.554-27.337,13.691
		l-9.582-9.583l19.342-19.341c2.643-2.645,2.643-6.932,0-9.576c-2.645-2.645-6.932-2.644-9.576,0l-19.342,19.341l-9.582-9.583
		c4.139-9.62,8.708-18.742,13.693-27.341c0.182-0.262,0.34-0.536,0.482-0.82c9.4-16.063,20.258-30.288,32.475-42.505
		c26.532-26.532,58.679-42.294,80.974-50.843c13.547-5.196,25.209-8.436,32.918-10.294C285.082,70.77,281.842,82.432,276.646,95.979
		z"/>
	<path fill="#7C71CC" d="M210.672,207.648l-4.787,24.588l-19.785,19.851l-1.807,9.278l29.033-29.129l6.102-31.34
		C216.588,203.206,213.664,205.453,210.672,207.648z"/>
</g>
</svg>
