<?xml version="1.0" encoding="utf-8"?>
<!-- Generator: Adobe Illustrator 24.3.0, SVG Export Plug-In . SVG Version: 6.00 Build 0)  -->
<svg version="1.1" id="Layer_1" xmlns="http://www.w3.org/2000/svg" xmlns:xlink="http://www.w3.org/1999/xlink" x="0px" y="0px"
	 viewBox="0 0 350 350" enable-background="new 0 0 350 350" xml:space="preserve">
<g>
	
		<rect x="115.816" y="137.258" transform="matrix(0.9045 -0.4265 0.4265 0.9045 -49.8331 74.7507)" fill="#88E5D9" width="52.318" height="22.753"/>
	
		<rect x="63.698" y="169.123" transform="matrix(0.9045 -0.4264 0.4264 0.9045 -66.4405 53.3607)" fill="#9788E2" width="44.491" height="11.864"/>
	<path fill="#88E5D9" d="M195.019,171.042h-40.036v-0.991l21.279-10.035l0.092,0.197c1.156,2.449,3.59,3.885,6.131,3.885
		c0.967,0,1.949-0.208,2.883-0.647l9.651-4.551V171.042z"/>
	<polygon fill="#9788E2" points="185.716,148.313 185.628,148.126 185.624,148.116 170.143,115.288 170.143,115.286 
		170.052,115.092 271.045,67.472 286.709,100.693 	"/>
	<polygon fill="#6BD1C2" points="162.995,166.272 154.983,170.051 154.983,171.042 195.019,171.042 195.019,166.272 	"/>
	<path fill="#041C3F" d="M301.845,101.042l-21.439-45.471c-1.596-3.382-5.631-4.831-9.014-3.236L158.151,105.73
		c-1.625,0.766-2.878,2.146-3.484,3.836c-0.607,1.69-0.518,3.553,0.248,5.177l0.092,0.196l-53.443,25.201
		c-1.625,0.765-2.879,2.145-3.486,3.836c-0.455,1.267-0.518,2.631-0.198,3.919l-46.485,21.921c-3.383,1.596-4.832,5.63-3.237,9.013
		l10.835,22.979c1.156,2.449,3.59,3.885,6.13,3.885c0.968,0,1.95-0.209,2.884-0.648l46.485-21.92
		c0.79,1.067,1.884,1.886,3.151,2.342c0.741,0.266,1.516,0.398,2.289,0.398c0.988,0,1.976-0.217,2.888-0.646l18.622-8.781v1.377
		c0,3.739,3.031,6.77,6.771,6.77h17.295l-50.184,104.015c-1.625,3.369-0.212,7.416,3.156,9.041c0.949,0.458,1.95,0.674,2.938,0.674
		c2.518,0,4.936-1.41,6.104-3.83l40.709-84.378v81.437c0,3.74,3.031,6.772,6.771,6.772c3.739,0,6.77-3.031,6.77-6.772v-81.437
		l40.711,84.378c1.166,2.42,3.586,3.83,6.104,3.83c0.986,0,1.988-0.216,2.936-0.674c3.369-1.624,4.781-5.672,3.156-9.041
		l-50.183-104.015h17.295c3.74,0,6.771-3.031,6.771-6.77v-25.301l90.048-42.459c1.625-0.766,2.877-2.146,3.484-3.836
		C302.701,104.528,302.611,102.666,301.845,101.042z M68.352,189.907l-5.059-10.73l40.242-18.975l5.059,10.731L68.352,189.907z
		 M123.167,170.081l-9.705-20.58l47.321-22.313l9.704,20.579L123.167,170.081z M195.019,171.042h-40.036v-0.991l21.279-10.035
		l0.092,0.197c1.156,2.449,3.59,3.885,6.131,3.885c0.967,0,1.949-0.208,2.883-0.647l9.651-4.551V171.042z M185.716,148.313
		l-0.088-0.188c-0.002-0.003-0.002-0.007-0.004-0.01l-15.48-32.828c0-0.001,0-0.002,0-0.002l-0.092-0.194l100.993-47.62
		l15.664,33.222L185.716,148.313z"/>
	
		<rect x="118.731" y="150.275" transform="matrix(0.9045 -0.4265 0.4265 0.9045 -52.1921 76.5865)" fill="#6BD1C2" width="52.318" height="9.083"/>
	
		<rect x="64.772" y="173.917" transform="matrix(0.9045 -0.4264 0.4264 0.9045 -67.3124 54.0401)" fill="#7C71CC" width="44.491" height="6.829"/>
	<polygon fill="#7C71CC" points="181.998,140.427 185.624,148.116 185.628,148.126 185.716,148.313 286.709,100.693 282.99,92.806 	
		"/>
</g>
</svg>
