<?xml version="1.0" encoding="utf-8"?>
<!-- Generator: Adobe Illustrator 24.3.0, SVG Export Plug-In . SVG Version: 6.00 Build 0)  -->
<svg version="1.1" id="Layer_1" xmlns="http://www.w3.org/2000/svg" xmlns:xlink="http://www.w3.org/1999/xlink" x="0px" y="0px"
	 viewBox="0 0 350 350" enable-background="new 0 0 350 350" xml:space="preserve">
<g>
	<path fill="#88E5D9" d="M175,61.05c25.025,0,45.385,20.359,45.385,45.385v0.682c0,0.008,0,0.016,0,0.024v21.16
		c-14.324,4.118-29.566,6.204-45.385,6.204s-31.061-2.084-45.385-6.204v-21.169c0-0.004,0-0.008,0-0.012v-0.686
		C129.615,81.409,149.975,61.05,175,61.05z"/>
	<path fill="#69CCBE" d="M175,61.05c-17.012,0-31.863,9.41-39.633,23.296c6.541-3.659,14.074-5.749,22.088-5.749
		c25.023,0,45.383,20.358,45.383,45.384v0.681c0,0.008,0,0.018,0,0.025v7.562c5.98-0.992,11.838-2.306,17.547-3.947v-21.16
		c0-0.009,0-0.017,0-0.024v-0.682C220.385,81.409,200.025,61.05,175,61.05z"/>
	<path fill="#9788E2" d="M281.117,175.341c-5.492,6.385-13.738,12.515-23.846,17.727c-22.44,11.57-51.656,17.943-82.272,17.943
		s-59.832-6.373-82.271-17.943c-10.107-5.212-18.354-11.342-23.846-17.727c-5.209-6.056-7.85-12.104-7.85-17.975
		c0-10.619,8.838-19.182,16.25-24.496c9.758-6.993,23.055-12.816,38.791-17.028v17.47c0,2.937,1.893,5.539,4.688,6.443
		c17.018,5.503,35.266,8.293,54.238,8.293s37.221-2.79,54.238-8.293c2.795-0.904,4.688-3.507,4.688-6.443v-17.47
		c15.736,4.212,29.033,10.035,38.791,17.028c7.412,5.314,16.25,13.877,16.25,24.496
		C288.967,163.237,286.326,169.285,281.117,175.341z"/>
	<g>
		<path fill="#8478D6" d="M69.473,139.755c17.017,5.503,35.266,8.293,54.238,8.293c8.719,0,17.281-0.597,25.645-1.768
			c-9.836-1.377-19.396-3.552-28.594-6.525c-2.795-0.904-4.688-3.507-4.688-6.443v-17.47c-15.736,4.212-29.033,10.035-38.791,17.028
			c-2.629,1.884-5.436,4.18-7.965,6.828C69.371,139.716,69.42,139.737,69.473,139.755z"/>
		<path fill="#8478D6" d="M272.717,132.87c-9.758-6.993-23.055-12.816-38.791-17.028v17.47c0,2.882-1.824,5.438-4.533,6.387
			c4.604,4.819,8.285,10.814,8.285,17.668c0,5.871-2.641,11.919-7.85,17.975c-5.492,6.385-13.738,12.515-23.846,17.727
			c-16.061,8.281-35.594,13.898-56.627,16.424c8.354,1.002,16.941,1.52,25.645,1.52c30.615,0,59.832-6.373,82.272-17.943
			c10.107-5.212,18.353-11.342,23.846-17.727c5.209-6.056,7.85-12.104,7.85-17.975C288.967,146.747,280.129,138.184,272.717,132.87z
			"/>
	</g>
	<path fill="#041C3F" d="M233.746,101.813c-2.365-30.34-27.809-54.305-58.746-54.305s-56.381,23.965-58.746,54.305
		c-42.562,10.525-68.764,31.56-68.764,55.553c0,9.204,3.744,18.223,11.127,26.807c6.711,7.801,16.1,14.843,27.904,20.931
		c24.322,12.542,55.746,19.448,88.479,19.448c32.734,0,64.156-6.906,88.478-19.448c11.807-6.088,21.195-13.13,27.904-20.931
		c7.383-8.584,11.127-17.603,11.127-26.807C302.51,133.373,276.309,112.339,233.746,101.813z M129.615,107.132
		c0-0.004,0-0.008,0-0.012v-0.686c0-25.025,20.359-45.385,45.385-45.385s45.385,20.359,45.385,45.385v0.682c0,0.008,0,0.016,0,0.024
		v21.16c-14.324,4.118-29.566,6.204-45.385,6.204s-31.061-2.084-45.385-6.204V107.132z M281.117,175.341
		c-5.492,6.385-13.738,12.515-23.846,17.727c-22.44,11.57-51.656,17.943-82.272,17.943s-59.832-6.373-82.271-17.943
		c-10.107-5.212-18.354-11.342-23.846-17.727c-5.209-6.056-7.85-12.104-7.85-17.975c0-10.619,8.838-19.182,16.25-24.496
		c9.758-6.993,23.055-12.816,38.791-17.028v17.47c0,2.937,1.893,5.539,4.688,6.443c17.018,5.503,35.266,8.293,54.238,8.293
		s37.221-2.79,54.238-8.293c2.795-0.904,4.688-3.507,4.688-6.443v-17.47c15.736,4.212,29.033,10.035,38.791,17.028
		c7.412,5.314,16.25,13.877,16.25,24.496C288.967,163.237,286.326,169.285,281.117,175.341z"/>
	<path fill="#041C3F" d="M215.695,180.364c-8.9,1.971-18.082,3.271-27.291,3.866c-4.404,0.283-7.744,4.085-7.461,8.491
		c0.273,4.23,3.789,7.479,7.969,7.479c0.172,0,0.348-0.006,0.521-0.018c10.025-0.646,20.021-2.064,29.719-4.212
		c4.311-0.955,7.029-5.224,6.074-9.533C224.273,182.128,220.004,179.408,215.695,180.364z"/>
	<path fill="#041C3F" d="M160.73,184.038c-9.68-0.726-18.547-2.108-27.105-4.224c-4.283-1.06-8.617,1.555-9.678,5.84
		c-1.061,4.286,1.555,8.618,5.84,9.678c9.307,2.302,19.314,3.865,29.748,4.648c0.203,0.015,0.404,0.023,0.605,0.023
		c4.143,0,7.648-3.198,7.963-7.396C168.434,188.204,165.133,184.368,160.73,184.038z"/>
	<path fill="#041C3F" d="M266.19,159.867c-7.236,4.698-15.385,8.876-24.225,12.419c-4.098,1.643-6.088,6.296-4.445,10.393
		c1.252,3.123,4.252,5.021,7.422,5.021c0.99,0,1.996-0.185,2.971-0.575c9.801-3.927,18.879-8.588,26.984-13.85
		c3.701-2.403,4.754-7.355,2.35-11.058C274.842,158.517,269.893,157.464,266.19,159.867z"/>
	<path fill="#041C3F" d="M107.973,170.741c-9.07-4.232-16.973-9.031-24.293-13.584c-3.75-2.332-8.678-1.184-11.008,2.565
		c-2.332,3.749-1.184,8.677,2.564,11.009c7.73,4.81,16.105,9.889,25.977,14.496c1.094,0.51,2.244,0.751,3.375,0.751
		c3.01,0,5.893-1.708,7.248-4.614C113.703,177.364,111.975,172.607,107.973,170.741z"/>
	<path fill="#041C3F" d="M125.66,231.161c-3.4-1.555-7.42-0.057-8.973,3.345l-26.695,58.397c-1.555,3.401-0.057,7.419,3.344,8.974
		c0.912,0.417,1.869,0.614,2.811,0.614c2.568,0,5.025-1.469,6.162-3.957l26.695-58.399
		C130.559,236.734,129.061,232.717,125.66,231.161z"/>
	<path fill="#041C3F" d="M233.312,234.506c-1.553-3.401-5.572-4.899-8.973-3.345c-3.4,1.556-4.898,5.573-3.344,8.975l26.695,58.399
		c1.137,2.488,3.594,3.957,6.162,3.957c0.941,0,1.898-0.197,2.811-0.614c3.4-1.555,4.898-5.572,3.344-8.974L233.312,234.506z"/>
	<path fill="#041C3F" d="M175,230.55c-3.74,0-6.771,3.031-6.771,6.77v58.398c0,3.739,3.031,6.772,6.771,6.772
		s6.771-3.032,6.771-6.772V237.32C181.771,233.581,178.74,230.55,175,230.55z"/>
</g>
</svg>
