<?xml version="1.0" encoding="utf-8"?>
<!-- Generator: Adobe Illustrator 24.3.0, SVG Export Plug-In . SVG Version: 6.00 Build 0)  -->
<svg version="1.1" id="Layer_1" xmlns="http://www.w3.org/2000/svg" xmlns:xlink="http://www.w3.org/1999/xlink" x="0px" y="0px"
	 viewBox="0 0 350 350" enable-background="new 0 0 350 350" xml:space="preserve">
<g>
	<path fill="#9788E2" d="M61.051,213.806c0-21.271,8.899-40.491,23.151-54.175c6.409,9.449,17.151,15.37,29.003,15.37
		c19.339,0,35.072-15.734,35.072-35.073c0-0.094-0.009-0.188-0.01-0.282c35.712,5.794,63.069,36.836,63.069,74.16
		c0,2.422-0.126,4.814-0.351,7.178c-3.35-1.042-6.858-1.584-10.431-1.584c-19.339,0-35.072,15.734-35.072,35.073
		c0,8.879,3.44,17.36,9.326,23.767c-11.292,6.794-24.503,10.71-38.614,10.71C94.76,288.949,61.051,255.239,61.051,213.806z"/>
	<path fill="#8478D6" d="M153.571,271.572c-41.435,0-75.144-33.71-75.144-75.144c0-12.155,2.916-23.635,8.066-33.8
		c-0.812-0.956-1.583-1.952-2.292-2.998c-14.253,13.684-23.151,32.904-23.151,54.175c0,41.434,33.709,75.144,75.144,75.144
		c14.111,0,27.322-3.916,38.614-10.71c-2.282-2.483-4.191-5.281-5.68-8.291C164.108,271.011,158.904,271.572,153.571,271.572z"/>
	<path fill="#041C3F" d="M198.904,151.096c-16.75-16.75-39.021-25.976-62.71-25.976c-19.67,0-38.351,6.379-53.716,18.127
		c-0.228,0.158-0.446,0.326-0.651,0.509c-2.903,2.262-5.699,4.696-8.343,7.34c-16.751,16.751-25.976,39.021-25.976,62.71
		c0,23.689,9.225,45.959,25.976,62.711c16.75,16.75,39.02,25.975,62.71,25.975c19.683,0,38.375-6.388,53.747-18.15
		c0.226-0.157,0.445-0.324,0.652-0.51c2.892-2.255,5.676-4.681,8.311-7.315c12.004-12.006,20.118-26.853,23.766-43.018
		c0.264-0.664,0.413-1.353,0.458-2.045c1.154-5.748,1.75-11.651,1.75-17.647C224.879,190.117,215.654,167.847,198.904,151.096z
		 M134.692,138.701c0.023,0.408,0.043,0.816,0.043,1.227c0,11.872-9.658,21.53-21.53,21.53c-7.647,0-14.55-4.007-18.394-10.33
		C106.297,143.52,119.982,138.992,134.692,138.701z M185.812,270.168c-4.308-4.022-6.788-9.623-6.788-15.695
		c0-11.872,9.659-21.53,21.53-21.53c2.727,0,5.391,0.51,7.88,1.489C204.43,248.439,196.461,260.782,185.812,270.168z
		 M210.986,220.983c-3.35-1.042-6.858-1.584-10.431-1.584c-19.339,0-35.072,15.734-35.072,35.073c0,8.879,3.44,17.36,9.326,23.767
		c-11.292,6.794-24.503,10.71-38.614,10.71c-41.435,0-75.144-33.71-75.144-75.144c0-21.271,8.899-40.491,23.151-54.175
		c6.409,9.449,17.151,15.37,29.003,15.37c19.339,0,35.072-15.734,35.072-35.073c0-0.094-0.009-0.188-0.01-0.282
		c35.712,5.794,63.069,36.836,63.069,74.16C211.337,216.227,211.211,218.62,210.986,220.983z"/>
	<g>
		<path fill="#041C3F" d="M295.719,120.976c1.734,0,3.465,0.66,4.789,1.982c2.645,2.645,2.645,6.932,0,9.576l-52.839,52.838
			c-2.643,2.645-6.931,2.645-9.575,0c-2.645-2.645-2.645-6.932,0-9.576l52.838-52.838
			C292.254,121.636,293.986,120.976,295.719,120.976z"/>
	</g>
	<g>
		<path fill="#041C3F" d="M295.719,47.509c1.734,0,3.465,0.661,4.789,1.983c2.645,2.645,2.645,6.933,0,9.576l-77.045,77.044
			c-2.644,2.645-6.932,2.645-9.575,0c-2.645-2.645-2.645-6.932,0-9.576l77.044-77.044C292.254,48.171,293.986,47.509,295.719,47.509
			z"/>
	</g>
	<g>
		<path fill="#041C3F" d="M222.254,47.509c1.733,0,3.466,0.661,4.788,1.984c2.644,2.645,2.644,6.932,0,9.575l-52.839,52.837
			c-2.645,2.645-6.931,2.645-9.575,0c-2.644-2.645-2.644-6.932,0-9.576l52.838-52.837C218.788,48.171,220.522,47.509,222.254,47.509
			z"/>
	</g>
	<circle fill="#FF54A4" cx="113.205" cy="233.629" r="13.405"/>
	<path fill="#FFFFFF" d="M185.812,270.168c-4.308-4.022-6.788-9.623-6.788-15.695c0-11.872,9.659-21.53,21.53-21.53
		c2.727,0,5.391,0.51,7.88,1.489C204.43,248.439,196.461,260.782,185.812,270.168z"/>
	<path fill="#88E5D9" d="M134.735,139.928c0,11.872-9.658,21.53-21.53,21.53c-7.647,0-14.55-4.007-18.394-10.33
		c11.485-7.608,25.17-12.136,39.881-12.427C134.715,139.109,134.735,139.518,134.735,139.928z"/>
	<path fill="#EDEDED" d="M181.129,263.494c0-11.872,9.659-21.53,21.53-21.53c1.039,0,2.064,0.097,3.079,0.243
		c1.035-2.526,1.938-5.121,2.697-7.775c-2.49-0.979-5.154-1.489-7.88-1.489c-11.871,0-21.53,9.658-21.53,21.53
		c0,3.312,0.743,6.483,2.113,9.335C181.136,263.703,181.129,263.599,181.129,263.494z"/>
	<path fill="#69CCBE" d="M134.692,138.701c-1.939,0.038-3.857,0.155-5.757,0.338c-2.054,9.746-10.715,17.085-21.064,17.085
		c-4.538,0-8.806-1.419-12.336-3.887c3.95,5.678,10.48,9.221,17.67,9.221c11.872,0,21.53-9.658,21.53-21.53
		C134.735,139.518,134.715,139.109,134.692,138.701z"/>
	<path fill="#041C3F" d="M113.205,206.682c-14.859,0-26.947,12.089-26.947,26.947c0,14.858,12.088,26.947,26.947,26.947
		c14.858,0,26.947-12.089,26.947-26.947C140.152,218.77,128.064,206.682,113.205,206.682z M113.205,247.034
		c-7.392,0-13.405-6.014-13.405-13.405c0-7.392,6.014-13.405,13.405-13.405c7.392,0,13.405,6.014,13.405,13.405
		C126.61,241.02,120.597,247.034,113.205,247.034z"/>
	<path fill="#EF4198" d="M113.205,227.557c6.119,0,11.282,4.126,12.883,9.739c0.333-1.167,0.523-2.395,0.523-3.667
		c0-7.392-6.014-13.405-13.405-13.405c-7.392,0-13.405,6.014-13.405,13.405c0,1.272,0.189,2.499,0.522,3.667
		C101.923,231.683,107.086,227.557,113.205,227.557z"/>
</g>
</svg>
