<?xml version="1.0" encoding="utf-8"?>
<!-- Generator: Adobe Illustrator 24.3.0, SVG Export Plug-In . SVG Version: 6.00 Build 0)  -->
<svg version="1.1" id="Layer_1" xmlns="http://www.w3.org/2000/svg" xmlns:xlink="http://www.w3.org/1999/xlink" x="0px" y="0px"
	 viewBox="0 0 350 350" enable-background="new 0 0 350 350" xml:space="preserve">
<g>
	<path fill="#88E5D9" d="M255.938,209.915c-0.106,4.452-0.574,8.84-1.377,13.134c-4.487-0.502-8.657-2.549-11.868-5.916
		c-7.408-7.769-7.114-20.119,0.655-27.527c2.612-2.491,5.787-4.168,9.225-4.923C254.988,192.756,256.144,201.246,255.938,209.915z"
		/>
	<path fill="#69CCBE" d="M249.025,217.133c-7.408-7.769-7.114-20.119,0.655-27.527c1.083-1.032,2.266-1.916,3.52-2.661
		c-0.203-0.756-0.405-1.513-0.629-2.262c-3.438,0.755-6.612,2.432-9.225,4.923c-7.77,7.408-8.063,19.758-0.655,27.527
		c3.211,3.367,7.381,5.414,11.868,5.916c0.107-0.57,0.192-1.147,0.287-1.722C252.703,220.318,250.727,218.917,249.025,217.133z"/>
	<path fill="#FF54A4" d="M181.771,61.051h18.272l21.169,9.488v18.677l-16.951-7.597c-0.871-0.391-1.815-0.594-2.77-0.594h-19.721
		V66.154V61.051z"/>
	<polygon fill="#EF4198" points="200.044,61.051 181.771,61.051 181.771,66.154 181.771,70.718 200.044,70.718 221.213,80.206 
		221.213,70.539 	"/>
	<path fill="#88E5D9" d="M119.131,149.395c1.702-1.623,3.467-3.158,5.282-4.615c0.306,0.439,0.603,0.885,0.885,1.342
		c8.016,12.993,3.966,30.086-9.027,38.102c-5.9,3.64-12.945,4.892-19.661,3.639C100.234,173.645,107.752,160.245,119.131,149.395z"
		/>
	<path fill="#69CCBE" d="M125.298,146.121c-0.282-0.457-0.579-0.902-0.885-1.342c-1.815,1.457-3.58,2.992-5.282,4.615
		c-0.104,0.1-0.203,0.203-0.307,0.304c5.356,12.402,0.944,27.226-10.887,34.525c-3.204,1.976-6.745,3.242-10.387,3.792
		c6.429,0.973,13.095-0.321,18.721-3.792C129.264,176.207,133.313,159.114,125.298,146.121z"/>
	<path fill="#9788E2" d="M230.869,266.582c-15.127,14.424-34.962,22.367-55.852,22.367c-0.001,0-0.002,0-0.003,0
		c-22.366-0.002-43.181-8.912-58.608-25.092c-16.605-17.416-23.899-40.362-22.04-62.643c2.43,0.438,4.887,0.658,7.342,0.658
		c7.564,0,15.097-2.066,21.673-6.124c19.349-11.937,25.379-37.39,13.442-56.738c-0.377-0.609-0.772-1.206-1.178-1.793
		c11.919-6.645,25.395-10.19,39.342-10.19c0.004,0,0.009,0,0.013,0l0,0l0,0c22.36,0.004,43.169,8.915,58.594,25.092
		c5.701,5.98,10.379,12.674,13.96,19.865c-5.024,1.457-9.657,4.106-13.551,7.819c-13.175,12.561-13.673,33.499-1.111,46.675
		c4.862,5.099,11.228,8.456,18.043,9.693C246.714,247.57,239.924,257.947,230.869,266.582z"/>
	<path fill="#8478D6" d="M208.502,262.06c-0.001,0-0.003,0-0.004,0c-30.922-0.003-59.698-12.321-81.026-34.69
		c-7.607-7.979-13.792-16.8-18.58-26.146c-2.373,0.417-4.774,0.65-7.184,0.65c-2.455,0-4.912-0.221-7.342-0.658
		c-1.859,22.28,5.435,45.227,22.04,62.643c15.427,16.18,36.241,25.09,58.608,25.092c0.001,0,0.002,0,0.003,0
		c20.891,0,40.726-7.943,55.852-22.367c2.855-2.723,5.483-5.619,7.879-8.665C229.007,260.643,218.85,262.06,208.502,262.06z"/>
	<path fill="#041C3F" d="M243.395,142.773c-9.075-9.518-19.781-16.901-31.819-21.947c-9.536-3.995-19.534-6.373-29.804-7.099V94.568
		h18.272l25.171,11.281c0.884,0.396,1.828,0.593,2.769,0.593c1.287,0,2.568-0.366,3.682-1.088c1.927-1.248,3.09-3.388,3.09-5.684
		V66.154c0-2.668-1.567-5.088-4.002-6.18l-26.491-11.873c-0.871-0.391-1.815-0.592-2.77-0.592H175c-3.739,0-6.771,3.031-6.771,6.771
		v11.874v21.643v25.928c-21.883,1.549-42.425,10.597-58.443,25.869c-18.268,17.42-28.66,40.91-29.261,66.145
		c-0.601,25.235,8.662,49.194,26.081,67.464c9.075,9.518,19.78,16.902,31.819,21.946c11.624,4.87,23.934,7.341,36.588,7.341
		c0.003,0,0.002,0,0.004,0c24.385,0,47.541-9.272,65.197-26.107c18.27-17.42,28.661-40.91,29.262-66.146
		C270.076,185.002,260.814,161.043,243.395,142.773z M181.771,66.154v-5.104h18.272l21.169,9.488v18.677l-16.951-7.597
		c-0.871-0.391-1.815-0.594-2.77-0.594h-19.721V66.154z M119.131,149.395c1.702-1.623,3.467-3.158,5.282-4.615
		c0.306,0.439,0.603,0.885,0.885,1.342c8.016,12.993,3.966,30.086-9.027,38.102c-5.9,3.64-12.945,4.892-19.661,3.639
		C100.234,173.645,107.752,160.245,119.131,149.395z M230.869,266.582c-15.127,14.424-34.962,22.367-55.852,22.367
		c-0.001,0-0.002,0-0.003,0c-22.366-0.002-43.181-8.912-58.608-25.092c-16.605-17.416-23.899-40.362-22.04-62.643
		c2.43,0.438,4.887,0.658,7.342,0.658c7.564,0,15.097-2.066,21.673-6.124c19.349-11.937,25.379-37.39,13.442-56.738
		c-0.377-0.609-0.772-1.206-1.178-1.793c11.919-6.645,25.395-10.19,39.342-10.19c0.004,0,0.009,0,0.013,0l0,0
		c22.36,0.004,43.169,8.915,58.594,25.092c5.701,5.98,10.379,12.674,13.96,19.865c-5.024,1.457-9.657,4.106-13.551,7.819
		c-13.175,12.561-13.673,33.499-1.111,46.675c4.862,5.099,11.228,8.456,18.043,9.693
		C246.714,247.57,239.924,257.947,230.869,266.582z M255.938,209.915c-0.106,4.452-0.574,8.84-1.377,13.134
		c-4.487-0.502-8.657-2.549-11.868-5.916c-7.408-7.769-7.114-20.119,0.655-27.527c2.612-2.491,5.787-4.168,9.225-4.923
		C254.988,192.756,256.144,201.246,255.938,209.915z"/>
	<path fill="#FFFFFF" d="M182.07,251.084c-2.772,2.643-6.407,4.099-10.235,4.099c-4.1,0-7.915-1.634-10.742-4.599
		c-2.734-2.868-4.189-6.63-4.095-10.592c0.095-3.963,1.726-7.65,4.595-10.386c2.771-2.643,6.407-4.1,10.235-4.1
		c4.101,0,7.915,1.634,10.742,4.599C188.216,236.027,187.992,245.438,182.07,251.084z"/>
	<path fill="#EDEDED" d="M182.57,230.105c-2.827-2.965-6.642-4.599-10.742-4.599c-3.828,0-7.464,1.456-10.235,4.1
		c-1.428,1.361-2.548,2.959-3.326,4.709c1.888-0.848,3.942-1.309,6.061-1.309c4.101,0,7.915,1.634,10.742,4.599
		c4.268,4.478,5.176,10.945,2.809,16.276c1.528-0.684,2.949-1.614,4.191-2.798C187.992,245.438,188.216,236.027,182.57,230.105z"/>
	<path fill="#041C3F" d="M192.371,220.76c-5.408-5.672-12.704-8.795-20.543-8.795c-7.324,0-14.278,2.785-19.581,7.841
		c-5.486,5.232-8.607,12.286-8.787,19.863c-0.181,7.579,2.601,14.774,7.832,20.261c5.408,5.672,12.703,8.795,20.542,8.795
		c0.001,0,0.001,0,0.002,0c7.323,0,14.277-2.784,19.58-7.84C202.741,250.086,203.17,232.086,192.371,220.76z M182.07,251.084
		c-2.772,2.643-6.407,4.099-10.235,4.099c-4.1,0-7.915-1.634-10.742-4.599c-2.734-2.868-4.189-6.63-4.095-10.592
		c0.095-3.963,1.726-7.65,4.595-10.386c2.771-2.643,6.407-4.1,10.235-4.1c4.101,0,7.915,1.634,10.742,4.599
		C188.216,236.027,187.992,245.438,182.07,251.084z"/>
</g>
</svg>
