<?xml version="1.0" encoding="utf-8"?>
<!-- Generator: Adobe Illustrator 24.3.0, SVG Export Plug-In . SVG Version: 6.00 Build 0)  -->
<svg version="1.1" id="Layer_1" xmlns="http://www.w3.org/2000/svg" xmlns:xlink="http://www.w3.org/1999/xlink" x="0px" y="0px"
	 viewBox="0 0 350 350" enable-background="new 0 0 350 350" xml:space="preserve">
<g>
	<path fill="#FFFFFF" d="M179.286,61.141c0.013,0.343,0.029,0.685,0.029,1.029c0,14.63-11.902,26.532-26.531,26.532
		c-11.388,0-21.203-7.091-24.936-17.427c14.377-6.562,30.345-10.223,47.153-10.223C176.436,61.052,177.863,61.088,179.286,61.141z"
		/>
	<path fill="#FF54A4" d="M234.914,271.883c-7.69-4.581-12.512-12.888-12.512-22.005c0-14.124,11.492-25.614,25.617-25.614
		c9.397,0,17.829,5.036,22.324,13.062C261.202,251.263,249.091,263.084,234.914,271.883z"/>
	<path fill="#9788E2" d="M277.693,224.359c-2.182-2.534-4.674-4.81-7.472-6.74c-6.547-4.513-14.225-6.898-22.201-6.898
		c-21.592,0-39.158,17.566-39.158,39.157c0,11.275,4.834,21.733,12.899,29.028c-14.275,6.449-30.106,10.042-46.761,10.042
		c-62.831,0-113.949-51.117-113.949-113.949c0-41.177,21.955-77.321,54.774-97.345c2.396,5.707,6.099,10.841,10.867,14.934
		c7.255,6.226,16.52,9.655,26.091,9.655c22.001,0,39.911-17.824,40.065-39.791c54.382,8.592,96.099,55.787,96.099,112.546
		C288.948,192.672,284.904,209.417,277.693,224.359z"/>
	<path fill="#8478D6" d="M108.455,175c0-29.091,10.968-55.661,28.974-75.818c-3.877-1.607-7.507-3.821-10.737-6.593
		c-4.768-4.093-8.471-9.227-10.867-14.934C83.007,97.679,61.052,133.823,61.052,175c0,62.831,51.117,113.949,113.949,113.949
		c8.126,0,16.054-0.861,23.702-2.486C147.208,275.525,108.455,229.706,108.455,175z"/>
	<path fill="#88E5D9" d="M134.664,243.936c-9.707,0-17.604-7.897-17.604-17.604c0-9.707,7.897-17.604,17.604-17.604
		c9.706,0,17.603,7.896,17.603,17.604C152.267,236.038,144.37,243.936,134.664,243.936z"/>
	<path fill="#88E5D9" d="M104.151,145.577c0-4.645,3.779-8.425,8.425-8.425s8.424,3.779,8.424,8.425
		c0,4.646-3.779,8.424-8.424,8.424S104.151,150.222,104.151,145.577z"/>
	<path fill="#FFFFFF" d="M220.596,166.113c-11.387,0-20.65-9.264-20.65-20.65c0-11.387,9.264-20.651,20.65-20.651
		s20.65,9.264,20.65,20.651C241.246,156.849,231.983,166.113,220.596,166.113z"/>
	<path fill="#EDEDED" d="M175,69.385c1.102,0,2.196,0.034,3.29,0.068c0.663-2.316,1.025-4.758,1.025-7.284
		c0-0.344-0.016-0.686-0.029-1.029c-1.423-0.053-2.85-0.089-4.286-0.089c-16.808,0-32.776,3.661-47.153,10.223
		c0.887,2.456,2.126,4.72,3.639,6.758C144.902,72.468,159.596,69.385,175,69.385z"/>
	<path fill="#EF4198" d="M229.811,257.287c0-14.124,11.492-25.614,25.617-25.614c5.12,0,9.946,1.504,14.012,4.162
		c-4.666-7.153-12.619-11.571-21.42-11.571c-14.125,0-25.617,11.49-25.617,25.614c0,8.738,4.438,16.724,11.576,21.406
		C231.316,267.208,229.811,262.374,229.811,257.287z"/>
	<path fill="#041C3F" d="M292.469,125.373c-6.422-15.182-15.613-28.816-27.318-40.522c-11.707-11.707-25.342-20.899-40.523-27.32
		c-12.37-5.232-25.345-8.425-38.696-9.553c-0.091-0.009-0.182-0.018-0.273-0.023c-3.528-0.291-7.081-0.445-10.658-0.445
		c-17.208,0-33.905,3.372-49.627,10.021c-15.182,6.421-28.816,15.613-40.523,27.32c-11.706,11.706-20.898,25.34-27.319,40.522
		C50.881,141.095,47.51,157.792,47.51,175c0,17.208,3.372,33.905,10.021,49.627c6.421,15.183,15.613,28.816,27.319,40.523
		c11.707,11.706,25.34,20.897,40.523,27.319c15.723,6.65,32.419,10.021,49.627,10.021c17.208,0,33.905-3.371,49.627-10.021
		c15.182-6.422,28.816-15.613,40.523-27.319c11.705-11.706,20.897-25.34,27.318-40.523c6.65-15.723,10.022-32.419,10.022-49.627
		C302.49,157.792,299.119,141.095,292.469,125.373z M175,61.052c1.436,0,2.863,0.036,4.286,0.089
		c0.013,0.343,0.029,0.685,0.029,1.029c0,14.63-11.902,26.532-26.531,26.532c-11.388,0-21.203-7.091-24.936-17.427
		C142.224,64.713,158.192,61.052,175,61.052z M234.914,271.883c-7.69-4.581-12.512-12.888-12.512-22.005
		c0-14.124,11.492-25.614,25.617-25.614c9.397,0,17.829,5.036,22.324,13.062C261.202,251.263,249.091,263.084,234.914,271.883z
		 M277.693,224.359c-2.182-2.534-4.674-4.81-7.472-6.74c-6.547-4.513-14.225-6.898-22.201-6.898
		c-21.592,0-39.158,17.566-39.158,39.157c0,11.275,4.834,21.733,12.899,29.028c-14.275,6.449-30.106,10.042-46.761,10.042
		c-62.831,0-113.949-51.117-113.949-113.949c0-41.177,21.955-77.321,54.774-97.345c2.396,5.707,6.099,10.841,10.867,14.934
		c7.255,6.226,16.52,9.655,26.091,9.655c22.001,0,39.911-17.824,40.065-39.791c54.382,8.592,96.099,55.787,96.099,112.546
		C288.948,192.672,284.904,209.417,277.693,224.359z"/>
	<path fill="#041C3F" d="M134.664,195.186c-17.174,0-31.147,13.973-31.147,31.146s13.972,31.146,31.147,31.146
		c17.174,0,31.146-13.972,31.146-31.146S151.838,195.186,134.664,195.186z M134.664,243.936c-9.707,0-17.604-7.897-17.604-17.604
		c0-9.707,7.897-17.604,17.604-17.604c9.706,0,17.603,7.896,17.603,17.604C152.267,236.038,144.37,243.936,134.664,243.936z"/>
	<path fill="#041C3F" d="M112.576,123.61c-12.113,0-21.967,9.854-21.967,21.967c0,12.113,9.854,21.967,21.967,21.967
		c12.112,0,21.967-9.854,21.967-21.967C134.543,133.464,124.688,123.61,112.576,123.61z M112.576,154.001
		c-4.646,0-8.425-3.779-8.425-8.424c0-4.645,3.779-8.425,8.425-8.425s8.424,3.779,8.424,8.425
		C121,150.222,117.221,154.001,112.576,154.001z"/>
	<path fill="#041C3F" d="M220.596,111.269c-18.854,0-34.193,15.338-34.193,34.193c0,18.854,15.34,34.192,34.193,34.192
		c18.855,0,34.193-15.339,34.193-34.192C254.789,126.608,239.45,111.269,220.596,111.269z M220.596,166.113
		c-11.387,0-20.65-9.264-20.65-20.65c0-11.387,9.264-20.651,20.65-20.651s20.65,9.264,20.65,20.651
		C241.246,156.849,231.983,166.113,220.596,166.113z"/>
	<path fill="#69CCBE" d="M134.664,217.395c8.209,0,15.103,5.656,17.041,13.27c0.354-1.389,0.562-2.835,0.562-4.333
		c0-9.707-7.897-17.604-17.603-17.604c-9.707,0-17.604,7.896-17.604,17.604c0,1.498,0.208,2.944,0.562,4.333
		C119.56,223.051,126.454,217.395,134.664,217.395z"/>
	<path fill="#69CCBE" d="M112.576,145.819c3.06,0,5.735,1.645,7.211,4.091c0.765-1.268,1.213-2.747,1.213-4.333
		c0-4.645-3.779-8.425-8.424-8.425s-8.425,3.779-8.425,8.425c0,1.586,0.449,3.065,1.213,4.333
		C106.841,147.464,109.516,145.819,112.576,145.819z"/>
	<path fill="#EDEDED" d="M220.596,133.478c9.9,0,18.187,7.005,20.185,16.317c0.3-1.398,0.466-2.846,0.466-4.333
		c0-11.387-9.264-20.651-20.65-20.651s-20.65,9.264-20.65,20.651c0,1.487,0.166,2.935,0.466,4.333
		C202.409,140.483,210.696,133.478,220.596,133.478z"/>
</g>
</svg>
